<svg width="900" height="1200" viewBox="0 0 900 1200" fill="none" xmlns="http://www.w3.org/2000/svg">
  <rect width="900" height="1200" rx="44" fill="#0F172A"/>
  <rect x="26" y="24" width="848" height="1152" rx="36" fill="#F8FAFC"/>
  <rect x="78" y="74" width="744" height="92" rx="20" fill="#FFFFFF" stroke="#E5E7EB"/>
  <rect x="116" y="110" width="220" height="14" rx="7" fill="#111827"/>
  <rect x="78" y="188" width="744" height="74" rx="18" fill="#FFFFFF" stroke="#E5E7EB"/>
  <rect x="116" y="216" width="210" height="12" rx="6" fill="#111827"/>
  <rect x="340" y="216" width="160" height="12" rx="6" fill="#6B7280"/>
  <circle cx="776" cy="226" r="14" fill="#047857"/>
  <rect x="78" y="280" width="744" height="74" rx="18" fill="#FFFFFF" stroke="#E5E7EB"/>
  <rect x="116" y="308" width="230" height="12" rx="6" fill="#111827"/>
  <rect x="362" y="308" width="170" height="12" rx="6" fill="#6B7280"/>
  <circle cx="776" cy="318" r="14" fill="#047857"/>
  <rect x="78" y="372" width="744" height="74" rx="18" fill="#FFFFFF" stroke="#E5E7EB"/>
  <rect x="116" y="400" width="250" height="12" rx="6" fill="#111827"/>
  <rect x="382" y="400" width="170" height="12" rx="6" fill="#6B7280"/>
  <circle cx="776" cy="410" r="14" fill="#047857"/>
  <rect x="78" y="476" width="744" height="300" rx="24" fill="#FFFFFF" stroke="#E5E7EB"/>
  <rect x="116" y="520" width="520" height="54" rx="16" fill="#EFF6FF"/>
  <rect x="134" y="543" width="300" height="10" rx="5" fill="#1E40AF"/>
  <rect x="264" y="594" width="520" height="54" rx="16" fill="#ECFDF5"/>
  <rect x="282" y="617" width="314" height="10" rx="5" fill="#065F46"/>
  <rect x="116" y="668" width="460" height="54" rx="16" fill="#EFF6FF"/>
  <rect x="134" y="691" width="288" height="10" rx="5" fill="#1E40AF"/>
  <rect x="78" y="808" width="744" height="300" rx="24" fill="#0F172A"/>
  <rect x="114" y="850" width="230" height="14" rx="7" fill="#CBD5E1"/>
  <rect x="114" y="880" width="530" height="12" rx="6" fill="#64748B"/>
  <rect x="114" y="906" width="540" height="12" rx="6" fill="#64748B"/>
  <rect x="114" y="940" width="290" height="40" rx="12" fill="#047857"/>
</svg>
