<svg width="1200" height="760" viewBox="0 0 1200 760" fill="none" xmlns="http://www.w3.org/2000/svg">
  <rect width="1200" height="760" rx="28" fill="#0F172A"/>
  <rect x="40" y="40" width="1120" height="680" rx="20" fill="#111827"/>
  <rect x="80" y="84" width="280" height="170" rx="16" fill="#1F2937" stroke="#374151"/>
  <rect x="106" y="116" width="130" height="12" rx="6" fill="#9CA3AF"/>
  <rect x="106" y="144" width="200" height="30" rx="8" fill="#ECFDF5"/>
  <rect x="80" y="278" width="280" height="170" rx="16" fill="#1F2937" stroke="#374151"/>
  <rect x="106" y="310" width="120" height="12" rx="6" fill="#9CA3AF"/>
  <rect x="106" y="338" width="180" height="30" rx="8" fill="#E0F2FE"/>
  <rect x="80" y="472" width="280" height="170" rx="16" fill="#1F2937" stroke="#374151"/>
  <rect x="106" y="504" width="150" height="12" rx="6" fill="#9CA3AF"/>
  <rect x="106" y="532" width="200" height="30" rx="8" fill="#F5F3FF"/>
  <rect x="392" y="84" width="728" height="558" rx="18" fill="#0B1220" stroke="#1F2937"/>
  <path d="M440 520C500 470 550 420 610 390C670 360 710 290 780 270C850 250 910 210 980 160" stroke="#047857" stroke-width="10" stroke-linecap="round"/>
  <circle cx="610" cy="390" r="10" fill="#10B981"/>
  <circle cx="780" cy="270" r="10" fill="#10B981"/>
  <circle cx="980" cy="160" r="10" fill="#10B981"/>
</svg>
