<svg width="1100" height="760" viewBox="0 0 1100 760" fill="none" xmlns="http://www.w3.org/2000/svg">
  <rect width="1100" height="760" rx="28" fill="#0F172A"/>
  <rect x="28" y="28" width="1044" height="704" rx="24" fill="#111827"/>
  <rect x="88" y="86" width="924" height="110" rx="18" fill="#FFFFFF" stroke="#E5E7EB"/>
  <rect x="126" y="126" width="240" height="14" rx="7" fill="#111827"/>
  <rect x="812" y="118" width="160" height="32" rx="16" fill="#DCFCE7"/>
  <rect x="846" y="129" width="90" height="10" rx="5" fill="#15803D"/>

  <rect x="88" y="224" width="620" height="448" rx="20" fill="#FFFFFF" stroke="#E5E7EB"/>
  <rect x="126" y="264" width="220" height="12" rx="6" fill="#111827"/>
  <rect x="126" y="292" width="500" height="1" fill="#E5E7EB"/>
  <rect x="126" y="320" width="460" height="10" rx="5" fill="#6B7280"/>
  <rect x="126" y="344" width="420" height="10" rx="5" fill="#9CA3AF"/>
  <rect x="126" y="376" width="500" height="150" rx="12" fill="#F9FAFB"/>
  <rect x="126" y="546" width="500" height="88" rx="12" fill="#ECFDF5"/>
  <rect x="154" y="576" width="230" height="12" rx="6" fill="#065F46"/>

  <rect x="740" y="224" width="272" height="210" rx="18" fill="#FFFFFF" stroke="#E5E7EB"/>
  <rect x="770" y="260" width="170" height="12" rx="6" fill="#111827"/>
  <rect x="770" y="286" width="210" height="10" rx="5" fill="#6B7280"/>
  <rect x="740" y="462" width="272" height="210" rx="18" fill="#ECFDF5" stroke="#A7F3D0"/>
  <rect x="770" y="498" width="190" height="12" rx="6" fill="#065F46"/>
  <rect x="770" y="524" width="220" height="10" rx="5" fill="#047857"/>
</svg>
